<svg width="173" height="173" viewBox="0 0 173 173" fill="none" xmlns="http://www.w3.org/2000/svg">
<path d="M22.9019 64.1619C30.8995 63.4349 33.6259 56.8915 34.5347 53.8015L34.8982 52.3474C34.8982 52.3474 35.807 51.2568 36.8976 49.621H37.2611C37.2611 49.621 38.1699 63.7984 37.4429 68.3425C36.7158 73.4318 36.7158 95.9703 36.5341 101.605C36.5341 107.967 37.6246 112.692 45.0769 112.692C52.5291 112.692 54.7103 106.876 54.3467 101.423C53.8015 93.7891 53.2562 68.1607 53.2562 68.1607C53.9832 71.4324 55.4373 74.5224 60.8902 73.9771C67.0701 73.25 68.3424 70.8871 68.5242 67.0701C71.6141 72.3412 75.7946 71.9777 78.3393 71.2506C82.7016 70.1601 83.9739 62.3443 83.9739 62.3443C85.6098 68.1607 88.3362 67.0701 92.1532 66.5248C94.5161 66.1613 97.2425 63.7984 98.1513 59.7997C99.0602 55.8009 102.15 52.8927 97.6061 21.4479C96.5155 13.2686 89.245 9.26985 78.5211 7.27047C71.2506 5.99814 61.2537 3.99876 53.8015 3.45348H51.8021C47.6215 3.27171 43.6228 4.90757 40.8964 8.54281L24.5378 30.8995C23.4472 31.9901 22.7202 33.4442 22.3567 35.2618C21.8114 40.8964 20.3573 47.8034 16.722 55.9827C15.4497 59.0726 17.4491 64.7072 22.9019 64.1619Z" fill="#FED0AC"/>
<path d="M89.6086 66.8884C82.7016 67.979 83.2469 57.255 84.701 61.7991C86.1551 66.5249 89.6086 66.8884 89.6086 66.8884Z" fill="#E0A372"/>
<path d="M76.3402 71.6142C66.8885 72.523 67.7973 61.9808 69.615 66.3431C71.4326 70.7054 76.3402 71.6142 76.3402 71.6142Z" fill="#E0A372"/>
<path d="M60.7086 73.977C51.257 74.8858 52.1658 63.6166 53.9834 67.9789C55.801 72.5229 60.7086 73.977 60.7086 73.977Z" fill="#E0A372"/>
<path d="M37.6253 49.4392C37.6253 49.4392 34.8988 72.3412 36.3529 101.423C36.3529 105.785 36.5347 112.329 43.9869 112.692C35.4441 109.966 39.4429 81.0658 37.6253 49.4392Z" fill="#E0A372"/>
<path d="M18.1766 62.5261C17.8131 61.2537 17.9948 59.7996 18.3584 58.8908C22.1754 50.7116 23.4477 43.8046 23.993 38.17C24.1747 36.3524 24.9018 34.8983 26.1741 33.8077L42.3509 11.6328C44.8956 8.17928 49.0761 6.36166 53.2566 6.54342H55.256C62.7082 7.0887 72.7051 9.08809 79.9756 10.3604C87.6096 11.6328 93.6078 14.1774 96.6977 18.3579C94.3348 12.178 87.6096 9.08808 78.3398 7.45223C71.0693 6.17989 61.0724 4.18051 53.6202 3.63523H51.6208C47.4403 3.45347 43.4415 5.08932 40.7151 8.72456L24.5383 30.8995C23.4477 31.9901 22.7206 33.4442 22.3571 35.2618C21.8118 40.8964 20.3577 47.8034 16.7225 55.9826C15.9955 57.8003 16.359 60.7085 18.1766 62.5261Z" fill="#E0A372"/>
<path d="M35.4438 41.8052C35.4438 41.8052 33.0809 49.621 32.1721 53.2562C31.445 56.3462 28.5368 61.9808 23.811 64.1619C31.445 63.0714 33.9897 56.8915 34.8985 53.8015L35.262 52.3474C35.262 52.3474 36.5344 51.4386 37.8067 49.621C37.6249 49.4392 35.0803 45.9857 35.4438 41.8052Z" fill="#E0A372"/>
<path d="M54.1653 66.1613C53.8017 65.0707 53.9835 63.7984 54.347 62.8896C54.7105 61.799 55.2558 60.8902 55.6194 59.9814C56.1646 59.0726 56.5282 58.1638 56.7099 57.255C56.8917 56.3462 57.0734 55.2556 57.2552 54.165C57.8005 55.2556 58.164 56.3462 58.164 57.6185C58.164 58.7091 57.8005 59.9814 57.2552 60.8902L55.6194 63.6167C55.0741 64.3437 54.5288 65.0707 54.1653 66.1613Z" fill="#E0A372"/>
<path d="M68.5244 63.2531C68.1609 62.1626 68.3427 60.8902 68.7062 59.9814C69.0697 58.8908 69.615 57.982 69.9785 57.0732C70.5238 56.1644 70.8873 55.2556 71.0691 54.3468C71.2509 53.438 71.4326 52.3474 71.6144 51.2568C72.3414 52.1657 72.5232 53.2562 72.5232 54.5286C72.5232 55.6191 72.1597 56.8915 71.6144 57.8003L69.9785 60.5267C69.2515 61.2537 68.888 62.1626 68.5244 63.2531Z" fill="#E0A372"/>
<path d="M83.9742 58.8908C83.6107 57.8003 83.7924 56.5279 84.156 55.6191C84.5195 54.5286 85.0648 53.6197 85.4283 52.7109C85.9736 51.8021 86.3371 50.8933 86.5189 49.9845C86.7006 49.0757 86.8824 47.9851 87.0642 46.8946C87.7912 47.8034 87.973 48.8939 87.973 50.1663C87.973 51.2568 87.6095 52.5292 87.0642 53.438L85.4283 56.1644C84.883 57.0732 84.5195 57.8003 83.9742 58.8908Z" fill="#E0A372"/>
<path d="M108.321 136.885C113.857 136.382 115.745 131.852 116.374 129.713L116.626 128.706C116.626 128.706 117.255 127.951 118.01 126.818H118.261C118.261 126.818 118.891 136.634 118.387 139.78C117.884 143.303 117.884 158.906 117.758 162.807C117.758 167.212 118.513 170.483 123.672 170.483C128.832 170.483 130.342 166.457 130.09 162.682C129.712 157.396 129.335 139.654 129.335 139.654C129.838 141.919 130.845 144.058 134.62 143.68C138.898 143.177 139.779 141.541 139.905 138.899C142.044 142.548 144.939 142.296 146.7 141.793C149.72 141.038 150.601 135.627 150.601 135.627C151.734 139.654 153.621 138.899 156.264 138.521C157.9 138.269 159.787 136.634 160.416 133.865C161.045 131.097 163.185 129.084 160.039 107.314C159.284 101.651 154.25 98.8831 146.826 97.4989C141.793 96.6181 134.872 95.2339 129.712 94.8564H128.328C125.434 94.7305 122.666 95.8631 120.778 98.3798L109.453 113.857C108.698 114.612 108.195 115.619 107.943 116.878C107.566 120.778 106.559 125.56 104.042 131.223C103.161 133.362 104.545 137.263 108.321 136.885Z" fill="#FED0AC"/>
<path d="M154.502 138.773C149.72 139.528 150.097 132.104 151.104 135.249C152.111 138.521 154.502 138.773 154.502 138.773Z" fill="#E0A372"/>
<path d="M145.316 142.045C138.773 142.674 139.402 135.375 140.66 138.395C141.919 141.415 145.316 142.045 145.316 142.045Z" fill="#E0A372"/>
<path d="M134.494 143.68C127.951 144.31 128.58 136.508 129.838 139.528C131.097 142.674 134.494 143.68 134.494 143.68Z" fill="#E0A372"/>
<path d="M118.513 126.693C118.513 126.693 116.626 142.548 117.633 162.682C117.633 165.702 117.758 170.232 122.918 170.483C117.003 168.596 119.772 148.588 118.513 126.693Z" fill="#E0A372"/>
<path d="M105.049 135.753C104.797 134.872 104.923 133.865 105.175 133.236C107.817 127.573 108.698 122.792 109.076 118.891C109.201 117.633 109.705 116.626 110.586 115.871L121.785 100.519C123.547 98.1281 126.441 96.8697 129.335 96.9956H130.719C135.878 97.3731 142.799 98.7572 147.833 99.6381C153.118 100.519 157.27 102.281 159.41 105.175C157.774 100.896 153.118 98.7572 146.7 97.6247C141.667 96.7439 134.746 95.3597 129.587 94.9822H128.202C125.308 94.8564 122.54 95.9889 120.652 98.5056L109.453 113.857C108.698 114.612 108.195 115.619 107.943 116.878C107.566 120.778 106.559 125.56 104.042 131.223C103.539 132.481 103.79 134.494 105.049 135.753Z" fill="#E0A372"/>
<path d="M117.003 121.408C117.003 121.408 115.368 126.818 114.738 129.335C114.235 131.474 112.222 135.375 108.95 136.885C114.235 136.13 115.997 131.852 116.626 129.713L116.878 128.706C116.878 128.706 117.758 128.077 118.639 126.818C118.513 126.693 116.752 124.302 117.003 121.408Z" fill="#E0A372"/>
<path d="M129.964 138.269C129.713 137.514 129.839 136.634 130.09 136.004C130.342 135.249 130.719 134.62 130.971 133.991C131.349 133.362 131.6 132.733 131.726 132.104C131.852 131.474 131.978 130.719 132.104 129.964C132.481 130.719 132.733 131.474 132.733 132.355C132.733 133.11 132.481 133.991 132.104 134.62L130.971 136.508C130.594 137.011 130.216 137.514 129.964 138.269Z" fill="#E0A372"/>
<path d="M139.905 136.256C139.653 135.501 139.779 134.62 140.031 133.991C140.283 133.236 140.66 132.607 140.912 131.978C141.289 131.349 141.541 130.719 141.667 130.09C141.793 129.461 141.919 128.706 142.044 127.951C142.548 128.58 142.674 129.335 142.674 130.216C142.674 130.971 142.422 131.852 142.044 132.481L140.912 134.369C140.408 134.872 140.157 135.501 139.905 136.256Z" fill="#E0A372"/>
<path d="M150.601 133.236C150.349 132.481 150.475 131.6 150.727 130.971C150.979 130.216 151.356 129.587 151.608 128.958C151.985 128.329 152.237 127.699 152.363 127.07C152.489 126.441 152.615 125.686 152.74 124.931C153.244 125.56 153.37 126.315 153.37 127.196C153.37 127.951 153.118 128.832 152.74 129.461L151.608 131.349C151.23 131.978 150.979 132.481 150.601 133.236Z" fill="#E0A372"/>
</svg>
