<svg width="81" height="81" viewBox="0 0 81 81" fill="none" xmlns="http://www.w3.org/2000/svg">
<path d="M16.3205 44.8853C21.8573 44.382 23.7448 39.8519 24.374 37.7127L24.6256 36.706C24.6256 36.706 25.2548 35.951 26.0098 34.8185H26.2615C26.2615 34.8185 26.8907 44.6336 26.3873 47.7795C25.884 51.3029 25.884 66.9065 25.7582 70.8073C25.7582 75.2116 26.5132 78.4833 31.6724 78.4833C36.8316 78.4833 38.3417 74.4566 38.09 70.6815C37.7125 65.3964 37.335 47.6537 37.335 47.6537C37.8383 49.9187 38.845 52.0579 42.6201 51.6804C46.8985 51.1771 47.7793 49.5412 47.9051 46.8987C50.0443 50.5479 52.9385 50.2962 54.7002 49.7929C57.7203 49.0379 58.6011 43.627 58.6011 43.627C59.7336 47.6537 61.6212 46.8987 64.2637 46.5212C65.8996 46.2695 67.7871 44.6336 68.4163 41.8653C69.0454 39.0969 71.1846 37.0835 68.0388 15.3141C67.2838 9.65147 62.2503 6.8831 54.8261 5.49892C49.7927 4.61807 42.8717 3.23389 37.7125 2.85638H36.3283C33.4341 2.73055 30.6657 3.86306 28.7782 6.37976L17.453 21.8575C16.698 22.6125 16.1947 23.6192 15.943 24.8775C15.5655 28.7784 14.5588 33.5602 12.0421 39.2227C11.1613 41.3619 12.5455 45.2628 16.3205 44.8853Z" fill="#FED0AC"/>
<path d="M62.5017 46.7729C57.72 47.5279 58.0975 40.1036 59.1041 43.2495C60.1108 46.5212 62.5017 46.7729 62.5017 46.7729Z" fill="#E0A372"/>
<path d="M53.3161 50.0445C46.7727 50.6737 47.4019 43.3753 48.6602 46.3953C49.9186 49.4154 53.3161 50.0445 53.3161 50.0445Z" fill="#E0A372"/>
<path d="M42.4941 51.6804C35.9507 52.3096 36.5798 44.5078 37.8382 47.5278C39.0965 50.6737 42.4941 51.6804 42.4941 51.6804Z" fill="#E0A372"/>
<path d="M26.5134 34.6927C26.5134 34.6927 24.6259 50.5479 25.6325 70.6815C25.6325 73.7016 25.7584 78.2316 30.9176 78.4833C25.0034 76.5958 27.7717 56.588 26.5134 34.6927Z" fill="#E0A372"/>
<path d="M13.0488 43.7528C12.7971 42.8719 12.923 41.8652 13.1746 41.2361C15.8172 35.5735 16.698 30.7918 17.0755 26.8909C17.2014 25.6325 17.7047 24.6258 18.5855 23.8708L29.7849 8.51894C31.5466 6.12807 34.4408 4.86972 37.335 4.99555H38.7192C43.8784 5.37306 50.7993 6.75725 55.8327 7.63809C61.1178 8.51894 65.2704 10.2806 67.4096 13.1748C65.7737 8.89644 61.1178 6.75724 54.7002 5.62473C49.6668 4.74388 42.7459 3.3597 37.5867 2.98219H36.2025C33.3083 2.85635 30.5399 3.98887 28.6524 6.50557L17.453 21.8575C16.698 22.6125 16.1947 23.6192 15.943 24.8775C15.5655 28.7784 14.5588 33.5601 12.0421 39.2227C11.5388 40.4811 11.7905 42.4944 13.0488 43.7528Z" fill="#E0A372"/>
<path d="M25.0034 29.4076C25.0034 29.4076 23.3675 34.8185 22.7384 37.3352C22.235 39.4744 20.2217 43.3753 16.95 44.8853C22.235 44.1303 23.9967 39.8519 24.6259 37.7127L24.8776 36.706C24.8776 36.706 25.7584 36.0768 26.6393 34.8185C26.5134 34.6926 24.7517 32.3018 25.0034 29.4076Z" fill="#E0A372"/>
<path d="M37.9644 46.2695C37.7127 45.5145 37.8386 44.6336 38.0902 44.0045C38.3419 43.2494 38.7194 42.6203 38.9711 41.9911C39.3486 41.3619 39.6002 40.7327 39.7261 40.1036C39.8519 39.4744 39.9778 38.7194 40.1036 37.9644C40.4811 38.7194 40.7328 39.4744 40.7328 40.3552C40.7328 41.1102 40.4811 41.9911 40.1036 42.6203L38.9711 44.5078C38.5936 45.0111 38.2161 45.5145 37.9644 46.2695Z" fill="#E0A372"/>
<path d="M47.9052 44.2561C47.6535 43.5011 47.7793 42.6202 48.031 41.9911C48.2827 41.2361 48.6602 40.6069 48.9118 39.9777C49.2893 39.3485 49.541 38.7194 49.6668 38.0902C49.7927 37.461 49.9185 36.706 50.0444 35.951C50.5477 36.5802 50.6735 37.3352 50.6735 38.216C50.6735 38.971 50.4219 39.8519 50.0444 40.4811L48.9118 42.3686C48.4085 42.8719 48.1568 43.5011 47.9052 44.2561Z" fill="#E0A372"/>
<path d="M58.6011 41.2361C58.3495 40.4811 58.4753 39.6002 58.727 38.9711C58.9786 38.216 59.3562 37.5869 59.6078 36.9577C59.9853 36.3285 60.237 35.6993 60.3628 35.0702C60.4887 34.441 60.6145 33.686 60.7403 32.931C61.2437 33.5601 61.3695 34.3152 61.3695 35.196C61.3695 35.951 61.1178 36.8319 60.7403 37.461L59.6078 39.3486C59.2303 39.9777 58.9786 40.4811 58.6011 41.2361Z" fill="#E0A372"/>
</svg>
