<svg width="451" height="78" viewBox="0 0 451 78" fill="none" xmlns="http://www.w3.org/2000/svg">
<path d="M23.0779 72.0457L0.973999 77.5716V11.2601C3.73698 16.0492 7.60515 19.0885 12.5785 20.3779C17.7361 21.6673 23.0779 22.312 28.6038 22.312C34.8666 22.312 40.3925 23.9698 45.1817 27.2854C49.9709 23.9698 55.4968 22.312 61.7596 22.312C69.3117 22.312 75.7587 24.7066 81.1005 29.4957C86.6264 34.2849 89.3894 40.1793 89.3894 47.1788V72.0457L67.2856 77.5716V47.1788C67.2856 45.7052 66.733 44.4158 65.6278 43.3106C64.5226 42.2055 63.2332 41.6529 61.7596 41.6529C60.286 41.6529 58.9966 42.2055 57.8914 43.3106C56.7862 44.4158 56.2336 45.7052 56.2336 47.1788V72.0457L34.1298 77.5716V47.1788C34.1298 45.7052 33.5772 44.4158 32.472 43.3106C31.3668 42.2055 30.0774 41.6529 28.6038 41.6529C27.1302 41.6529 25.8408 42.2055 24.7356 43.3106C23.6304 44.4158 23.0779 45.7052 23.0779 47.1788V72.0457ZM144.055 72.0457V71.7694C142.398 71.9536 140.556 72.0457 138.529 72.0457C130.977 72.0457 124.438 70.0195 118.912 65.9671C113.571 61.7305 110.9 55.4678 110.9 47.1788C110.9 40.1793 113.571 34.2849 118.912 29.4957C124.438 24.7066 130.977 22.312 138.529 22.312C144.055 22.312 149.305 21.6673 154.278 20.3779C159.436 19.0885 163.396 16.0492 166.159 11.2601V47.1788V72.0457H144.055ZM138.529 52.7048C140.003 52.7048 141.292 52.1522 142.398 51.047C143.503 49.9418 144.055 48.6524 144.055 47.1788C144.055 45.7052 143.503 44.4158 142.398 43.3106C141.292 42.2055 140.003 41.6529 138.529 41.6529C137.056 41.6529 135.766 42.2055 134.661 43.3106C133.556 44.4158 133.004 45.7052 133.004 47.1788C133.004 48.6524 133.556 49.9418 134.661 51.047C135.766 52.1522 137.056 52.7048 138.529 52.7048ZM209.741 49.9418C209.741 53.4416 211.03 56.0204 213.609 57.6782C216.372 59.3359 219.411 60.1648 222.727 60.1648C225.858 60.1648 228.898 59.5201 231.845 58.2307C228.898 62.8357 225.398 66.3355 221.346 68.7301C217.293 70.9405 213.149 72.0457 208.912 72.0457C203.386 72.0457 198.413 70.1116 193.992 66.2434C189.755 62.191 187.637 56.7572 187.637 49.9418V27.8379H182.111V22.5883H187.637V5.7341L209.741 0.208134V22.5883H231.845V27.8379H209.741V49.9418ZM275.348 49.9418C275.348 53.4416 276.638 56.0204 279.217 57.6782C281.979 59.3359 285.019 60.1648 288.334 60.1648C291.466 60.1648 294.505 59.5201 297.452 58.2307C294.505 62.8357 291.005 66.3355 286.953 68.7301C282.9 70.9405 278.756 72.0457 274.519 72.0457C268.993 72.0457 264.02 70.1116 259.599 66.2434C255.363 62.191 253.244 56.7572 253.244 49.9418V22.312L275.348 16.786V49.9418ZM275.348 6.01039L253.244 11.8127V6.28669L275.348 0.484431V6.01039ZM352.008 72.0457V71.7694C350.35 71.9536 348.508 72.0457 346.482 72.0457C338.929 72.0457 332.39 70.0195 326.864 65.9671C321.523 61.7305 318.852 55.4678 318.852 47.1788C318.852 40.1793 321.523 34.2849 326.864 29.4957C332.39 24.7066 338.929 22.312 346.482 22.312C352.008 22.312 357.257 21.6673 362.231 20.3779C367.388 19.0885 371.348 16.0492 374.111 11.2601V47.1788V72.0457H352.008ZM346.482 52.7048C347.955 52.7048 349.245 52.1522 350.35 51.047C351.455 49.9418 352.008 48.6524 352.008 47.1788C352.008 45.7052 351.455 44.4158 350.35 43.3106C349.245 42.2055 347.955 41.6529 346.482 41.6529C345.008 41.6529 343.719 42.2055 342.613 43.3106C341.508 44.4158 340.956 45.7052 340.956 47.1788C340.956 48.6524 341.508 49.9418 342.613 51.047C343.719 52.1522 345.008 52.7048 346.482 52.7048ZM395.589 52.4285H434.824L395.866 41.9292C397.339 36.219 400.563 31.5219 405.536 27.8379C410.509 24.154 416.312 22.312 422.943 22.312C429.39 22.312 435.1 24.154 440.073 27.8379C445.231 31.5219 448.454 36.1269 449.744 41.6529H409.957L450.296 52.4285C448.27 65.5066 439.152 72.0457 422.943 72.0457C416.127 72.0457 410.141 70.48 404.983 67.3486C400.01 64.033 396.879 59.0596 395.589 52.4285Z" fill="#FFE8DA"/>
</svg>
