<svg width="80" height="80" viewBox="0 0 80 80" fill="none" xmlns="http://www.w3.org/2000/svg">
<g clip-path="url(#clip0_187_10)">
<path fill-rule="evenodd" clip-rule="evenodd" d="M22.5 42.5L48.965 42.5L38.66 52.8C37.685 53.775 37.685 55.3501 38.66 56.3501C39.6375 57.3251 41.22 57.3251 42.1975 56.3501L56.34 42.2C56.9375 41.6 57.125 40.775 56.9875 40C57.125 39.225 56.9375 38.4 56.34 37.8L42.1975 23.6499C41.22 22.6749 39.6375 22.6749 38.66 23.6499C37.685 24.6249 37.685 26.225 38.66 27.2L48.965 37.5L22.5 37.5C21.12 37.5 20 38.625 20 40C20 41.375 21.12 42.5 22.5 42.5ZM40 5C59.33 5 75 20.675 75 40C75 59.325 59.33 75 40 75C20.67 75 5 59.325 5 40C5 20.675 20.67 5 40 5ZM40 80C62.09 80 80 62.1 80 40C80 17.9 62.09 0 40 0C17.91 0 0 17.9 0 40C0 62.1 17.91 80 40 80Z" fill="#D76B1C"/>
</g>
<defs>
<clipPath id="clip0_187_10">
<rect width="80" height="80" fill="white" transform="matrix(-1 0 0 -1 80 80)"/>
</clipPath>
</defs>
</svg>
